<svg id="Layer_3" enable-background="new 0 0 64 64" height="512" viewBox="0 0 64 64" width="512" xmlns="http://www.w3.org/2000/svg"><path d="m54 40c1.889-.63 3.37-2.111 4-4 .63 1.889 2.111 3.37 4 4-1.889.63-3.37 2.111-4 4-.63-1.889-2.111-3.37-4-4z" fill="#f0d365"/><path d="m2 50c1.889-.63 3.37-2.111 4-4 .63 1.889 2.111 3.37 4 4-1.889.63-3.37 2.111-4 4-.63-1.889-2.111-3.37-4-4z" fill="#f0d365"/><path d="m48 62h-32l4-8h24z" fill="#9d7a2b"/><path d="m20 54-4 8h29l-4-8z" fill="#d1a339"/><path d="m29 42h6v8h-6z" fill="#9d7a2b"/><path d="m29 42h3v8h-3z" fill="#d1a339"/><path d="m25 38h14v4h-14z" fill="#b49e4c"/><path d="m25 38h11v4h-11z" fill="#f0d365"/><path d="m25 50h14v4h-14z" fill="#b49e4c"/><path d="m25 50h11v4h-11z" fill="#f0d365"/><path d="m47 8v22c0 4.418-3.582 8-8 8h-14c-4.418 0-8-3.582-8-8v-22z" fill="#9d7a2b"/><path d="m44 30v-22h-27v22c0 4.418 3.582 8 8 8h11c4.418 0 8-3.582 8-8z" fill="#d1a339"/><circle cx="32" cy="23" fill="#aeb3b7" r="9"/><ellipse cx="30.5" cy="23" fill="#e8eff4" rx="7.5" ry="8.865"/><path d="m55 12h-8v4h6v4l-6 6v4c0 .819-.124 1.608-.353 2.352l10.353-10.352v-8c0-1.105-.895-2-2-2z" fill="#f0d365"/><path d="m17 30v-4l-6-6v-4h6v-4h-8c-1.105 0-2 .895-2 2v8l10.352 10.352c-.228-.744-.352-1.533-.352-2.352z" fill="#f0d365"/><path d="m13 2h38v6h-38z" fill="#b49e4c"/><path d="m13 2h35v6h-35z" fill="#f0d365"/><g fill="#575a5c"><path d="m33 27h-2v-5.586l-1.293 1.293-1.414-1.414 3-3c.286-.287.716-.371 1.09-.217.374.155.617.52.617.924z"/><path d="m29 26h6v2h-6z"/></g></svg>